<svg id="Layer_1" enable-background="new 0 0 500 500" viewBox="0 0 500 500" xmlns="http://www.w3.org/2000/svg" xmlns:xlink="http://www.w3.org/1999/xlink"><linearGradient id="SVGID_1_" gradientUnits="userSpaceOnUse" x1="12.745" x2="266.872" y1="239.478" y2="386.198"><stop offset="0" stop-color="#fd5f4a"/><stop offset="1" stop-color="#e0244f"/></linearGradient><linearGradient id="SVGID_2_" gradientUnits="userSpaceOnUse" x1="82.711" x2="417.29" y1="121.974" y2="121.974"><stop offset="0" stop-color="#fe6e4a"/><stop offset="1" stop-color="#ff2b4b"/></linearGradient><linearGradient id="SVGID_3_" gradientUnits="userSpaceOnUse" x1="54.475" x2="445.519" y1="136.75" y2="362.52"><stop offset="0" stop-color="#ff574a"/><stop offset=".1937" stop-color="#f74a4b"/><stop offset=".5505" stop-color="#e3284e"/><stop offset=".8209" stop-color="#d10a51"/></linearGradient><linearGradient id="SVGID_4_" gradientUnits="userSpaceOnUse" x1="276.275" x2="444.11" y1="264.388" y2="361.288"><stop offset=".0053" stop-color="#d60946"/><stop offset="1" stop-color="#b8073d"/></linearGradient><linearGradient id="lg1"><stop offset="0" stop-color="#d9c5c8"/><stop offset="1" stop-color="#fff"/></linearGradient><linearGradient id="SVGID_5_" gradientUnits="userSpaceOnUse" x1="205.252" x2="184.548" xlink:href="#lg1" y1="390.339" y2="426.199"/><linearGradient id="SVGID_6_" gradientUnits="userSpaceOnUse" x1="150.154" x2="129.452" xlink:href="#lg1" y1="294.91" y2="330.766"/><linearGradient id="SVGID_7_" gradientUnits="userSpaceOnUse" x1="249.998" x2="249.998" xlink:href="#lg1" y1="75.308" y2="42.239"/><linearGradient id="SVGID_8_" gradientUnits="userSpaceOnUse" x1="250.073" x2="250.073" xlink:href="#lg1" y1="201.714" y2="168.613"/><linearGradient id="SVGID_9_" gradientUnits="userSpaceOnUse" x1="139.808" x2="139.808" xlink:href="#lg1" y1="138.514" y2="105.445"/><linearGradient id="SVGID_10_" gradientUnits="userSpaceOnUse" x1="360.192" x2="360.192" xlink:href="#lg1" y1="138.514" y2="105.445"/><linearGradient id="SVGID_11_" gradientUnits="userSpaceOnUse" x1="95.059" x2="74.358" xlink:href="#lg1" y1="199.475" y2="235.332"/><linearGradient id="SVGID_12_" gradientUnits="userSpaceOnUse" x1="95.06" x2="74.353" xlink:href="#lg1" y1="327.129" y2="362.993"/><linearGradient id="SVGID_13_" gradientUnits="userSpaceOnUse" x1="205.253" x2="184.55" xlink:href="#lg1" y1="262.68" y2="298.541"/><linearGradient id="SVGID_14_" gradientUnits="userSpaceOnUse" x1="345.735" x2="374.65" xlink:href="#lg1" y1="304.491" y2="321.185"/><g><path d="m229.912 278.825-6.467-14.905-9.665-13.037-5.096-4.096-6.313-5.075-3.61-2.073-23.92-13.719-2.744-1.578-11.439-6.561-41.712-23.919-20.299-11.646-11.016-6.322-10.387-5.952-11.408-3.919-9.675 1.939-6.045 7.014-.412.485-2.27 11.912v68.903 7.148 68.902l2.27 14.523 6.457 14.904 7.292 9.829 2.383 3.208 1.279 1.031 10.129 8.139 41.703 23.92 41.712 23.93 41.713 23.919 11.409 3.92 9.665-1.939 6.467-7.499 2.27-11.913v-10.818-12.769-46.901-3.971-62.765-7.725l-.742-4.734zm-125.581 84.88-.824 1.402-2.105 3.58-4.559 2.672-5.755.092-6.375-2.485-6.385-4.827-5.745-6.694-4.569-7.902-2.93-8.355-1.01-7.963 1.01-6.808 2.93-4.982 4.569-2.672 4.342-.072 1.403-.02 6.385 2.486 2.919 2.207 3.455 2.62 5.755 6.694 4.559 7.912 2.929 8.345.701 5.529.31 2.435zm0-127.654-.824 1.412-2.105 3.569-4.559 2.672-5.755.103-5.838-2.28-.537-.217-6.385-4.827-5.745-6.694-4.569-7.902-2.93-8.355-1.01-7.962 1.01-6.808 2.93-4.982 4.569-2.672 4.342-.072 1.403-.02 6.385 2.485.537.413 5.838 4.415 2.929 3.414 2.826 3.279 4.559 7.912 1.681 4.786 1.248 3.559 1.012 7.962zm55.101 95.431-.825 1.403-2.104 3.58-4.57 2.671-5.745.093-3.197-1.238-3.188-1.249-1.671-1.258-4.703-3.569-5.756-6.694-4.558-7.911-2.93-8.345-.505-3.981-.505-3.981 1.001-6.808 2.94-4.982 4.558-2.672 4.352-.072 1.404-.02 3.187 1.238 3.187 1.248 3.394 2.558 2.991 2.269 5.745 6.694 4.57 7.912 2.929 8.345.505 3.981.268 2.124.238 1.857zm55.101 95.431-.835 1.402-2.105 3.58-4.558 2.671-5.756.093-6.374-2.486-6.375-4.827-5.755-6.694-4.57-7.911-2.929-8.345-1.011-7.963 1.011-6.807 2.929-4.992 4.57-2.662 4.353-.072 1.403-.031 6.375 2.496 6.374 4.827 5.756 6.694 4.558 7.901 2.94 8.345 1.012 7.973zm0-127.654-.835 1.402-2.105 3.58-4.558 2.672-5.756.092-6.374-2.485-1.207-.908-5.167-3.92-5.755-6.694-4.57-7.911-2.929-8.345-.434-3.394-.577-4.569 1.011-6.808 2.929-4.982 4.57-2.671 4.353-.073 1.403-.03 6.375 2.496 3.857 2.918 2.517 1.908 5.756 6.694 4.558 7.901 2.94 8.345.845 6.694.166 1.279z" fill="url(#SVGID_1_)"/><path d="m279.815 210.851 4.806-2.764 44.148-25.322 11.026-6.323.866-.495 3.424-1.97 39.857-22.857 11.016-6.323 9.985-5.714 9.139-7.85 3.208-9.252-3.208-9.253-9.139-7.849-41.713-23.921-41.712-23.93-41.703-23.92-11.563-4.424-2.114-.816-11.491-1.31-4.652-.536-11.924 1.362-4.208.484-13.677 5.24-59.475 34.122-6.168 3.537-59.485 34.111-9.138 7.849-3.208 9.253 3.208 9.252 9.138 7.85 9.974 5.714 4.477 2.568 6.55 3.755 20.712 11.882 41.713 23.92 36.895 21.166 4.807 2.764 6.354 2.435 7.323 2.805 16.132 1.837 16.142-1.837 7.324-2.805zm51.553-91.491 2.827-4.982 5.363-4.239 7.385-3.074 8.685-1.62h9.128l8.685 1.62 7.385 3.074 5.374 4.239 2.816 4.982v5.24l-2.135 3.765-.681 1.217-5.374 4.229-7.385 3.084-8.685 1.619h-9.128l-8.685-1.619-7.385-3.084-5.363-4.229-.692-1.217-2.135-3.765zm-162.736 5.239-2.135 3.765-.691 1.217-5.364 4.229-7.385 3.084-8.685 1.619h-9.129l-7.777-1.454-.908-.165-7.385-3.084-4.972-3.909-.402-.32-.691-1.217-2.125-3.765v-5.24l2.816-4.982 5.374-4.239 7.385-3.074 8.685-1.62h9.129l8.685 1.62.557.226 6.829 2.847 5.364 4.239.299.526 2.527 4.456v5.241zm52.544-68.448 2.816-4.972 5.373-4.239 7.385-3.084 8.685-1.619h9.128l8.686 1.619 7.385 3.084 5.363 4.239 2.826 4.972v5.24l-2.135 3.765-.691 1.217-5.363 4.239-2.816 1.176-4.569 1.897-8.686 1.62h-9.128l-8.685-1.62-4.569-1.897-2.816-1.176-5.373-4.239-.681-1.217-2.135-3.765zm46.643 142.044-4.569 1.898-8.686 1.619h-9.128l-8.685-1.619-4.569-1.898-2.816-1.176-5.373-4.239-.681-1.218-2.135-3.764v-5.23l2.816-4.982 5.373-4.239 7.385-3.074 8.685-1.62h9.128l8.686 1.62 7.385 3.074 5.363 4.239 2.826 4.982v5.23l-2.135 3.764-.691 1.218-5.363 4.239z" fill="url(#SVGID_2_)"/><path d="m455.031 334.741.072-.392.175-.794.279-1.362.794-10.088v-70.49-3.972-70.49l-.907-12.151-1.423-5.642-1.424-5.631-3.682-9.108-5.168-9.531-6.983-9.128-8.489-8.706-9.645-8.263-2.899-2.176-41.701-23.919-41.713-23.93-41.703-23.92-3.311-1.444-12.006-4.188-11.8-2.96-11.418-1.456-10.862.31-9.685 1.3-5.601 1.599-5.591 1.589-10.954 5.25-59.474 34.122-6.168 3.527-59.485 34.121-8.674 5.972-.341.227-1.692 1.65-.237.227-1.248 1.217-7.024 6.807 7.024-6.807 1.248-1.217-8.396 7.798 8.396-7.798.237-.227-8.757 7.798-10.201 14.08-7.107 15.905-2.538 12.036 2.815-12.089-2.815 12.089-.402 1.702-.052.444-.093 1.228-.753 9.294v68.902 7.148 68.902l.424 3.559.475 8.602 1.423 5.632 1.423 5.642 5.229 11.108 3.631 7.53 6.983 9.129 8.479 8.706 9.654 8.261 2.889 2.177 41.713 23.92 41.713 23.919 41.702 23.93 9.149 4.374.381.134.381.134.311.083.36.103.578.165 12.461 3.486-12.461-3.486-.578-.165 12.873 3.92-12.873-3.92-.36-.103 13.078 4.28 17.308 1.774 17.319-1.774 13.079-4.27-13.245 4.012 13.245-4.012.309-.093.381-.134 2.105-1.001 7.426-3.507 60.847-34.905 3.424-1.971 60.846-34.895 9.015-6.199 1.764-1.65-2.094 1.867-.33.227-5.457 3.579 5.457-3.579.33-.227 2.094-1.867 8.695-7.798 10.201-14.09 7.108-15.895zm-222.849-33.667v62.765 3.971 46.901 12.769 10.821l-2.27 11.913-6.467 7.499-9.665 1.939-11.409-3.92-41.713-23.919-41.712-23.93-41.703-23.92-10.129-8.139-1.279-1.031 2.95 2.96-2.95-2.96-5.962-7.354 5.962 7.354-2.383-3.208-7.292-9.829-6.457-14.904-2.27-14.523v-68.902-7.148-68.903l2.27-11.912 2.918-12.027-2.918 12.027.412-.485 6.045-7.014 9.675-1.939 11.408 3.919 10.387 5.952 11.016 6.322 20.299 11.646 41.712 23.919 11.439 6.561 2.744 1.578 23.92 13.719 3.61 2.073 6.313 5.075 5.096 4.096 9.665 13.037 6.467 14.905 1.527 9.789.742 4.734v7.723zm33.956-84.984-16.142 1.837-16.132-1.837-7.323-2.805-6.354-2.435-4.807-2.764-36.895-21.166-41.713-23.92-20.712-11.882-6.55-3.755-4.477-2.568-9.974-5.714-9.138-7.85-3.208-9.252 3.208-9.253 9.138-7.849 59.485-34.111 6.168-3.537 59.475-34.122 13.677-5.24 9.913-2.3-9.913 2.3 4.208-.484 11.924-1.362 6.766.402-6.766-.402 4.652.536 11.491 1.31 4.023 1.094-4.023-1.094 2.114.816 11.563 4.424 41.703 23.92 41.712 23.93 41.713 23.919 9.139 7.849 3.208 9.253-3.208 9.252-9.139 7.85-9.985 5.714-11.016 6.323-39.857 22.857-3.424 1.97-.866.495-11.026 6.323-44.148 25.322-4.806 2.764-6.354 2.435zm177.702 145.665-9.676 13.038-11.407 9.17-17.112 9.82-.104.052-43.641 25.033-3.414 1.96-60.857 34.905-11.407 3.92-11.852 3.435 11.852-3.435-.599-.124-9.077-1.815-6.457-7.499-2.269-11.913v-10.822-12.769-46.912-3.96-62.765-7.725l.743-4.734 1.526-9.789 6.457-14.905 9.676-13.037 5.095-4.096 6.312-5.075 3.611-2.073 44.548-25.549 11.016-6.323 1.681-.959 3.414-1.96 39.454-22.631 11.016-6.322 10.387-5.952 11.407-3.919 9.676 1.939 6.457 7.499 2.269 11.912v70.492 3.971 70.491l-2.269 14.523z" fill="url(#SVGID_3_)"/><path d="m452.565 261.837v-3.971-70.492l-2.269-11.912-6.457-7.499-9.676-1.939-11.407 3.919-10.387 5.952-11.016 6.322-39.453 22.631-3.414 1.96-1.681.959-11.016 6.323-44.548 25.549-3.611 2.073-6.312 5.075-5.095 4.096-9.676 13.037-6.457 14.905-1.526 9.789-.743 4.734v7.725 62.765 3.96 46.912 12.769 10.821l2.269 11.913 6.457 7.499 9.077 1.815.599.124 11.407-3.92 60.857-34.905 3.414-1.96 43.641-25.034.104-.052 17.112-9.82 11.407-9.17 9.676-13.038 6.457-14.904 2.269-14.523v-70.488zm-72.749 47.127-2.929 8.345-4.57 7.911-5.745 6.694-1.464 1.114-3.445 2.599-1.465 1.114-6.385 2.486-5.746-.093-4.569-2.671-2.104-3.58-.825-1.403-.237-1.568-.547-3.672-.227-1.568.237-1.857.774-6.105 2.929-8.345 4.569-7.912 5.746-6.694 1.475-1.114 1.516-1.156 1.918-1.454 1.475-1.103 6.374-2.485 1.403.02 4.342.072 4.57 2.672 2.929 4.982.237 1.568.547 3.672.227 1.568z" fill="url(#SVGID_4_)"/><path d="m182.77 420.646 5.755 6.693 6.375 4.837 6.375 2.485 5.754-.103 4.57-2.662 2.104-3.58-1.403.021-.002-.001 1.4-.021.835-1.402 1.012-6.807-1.012-7.974-2.94-8.344-4.558-7.901-5.757-6.694-6.373-4.828-6.375-2.496-1.403.031-.497.834.491-.839-4.353.072-4.559 2.671-2.939 4.983-1 6.807 1.001 7.973 2.94 8.344z" fill="url(#SVGID_5_)"/><path d="m138.132 335.484 1.671 1.258 3.188 1.248 3.197 1.238 5.745-.093 4.57-2.671 2.104-3.58.825-1.402 1.011-6.808-.238-1.857-.268-2.124-.505-3.981-2.929-8.346-4.57-7.912-5.745-6.693-2.991-2.27-3.394-2.558-3.187-1.247-3.187-1.238-1.404.02-4.352.072-4.559 2.672-2.94 4.982-1 6.808.505 3.981.506 3.981 2.929 8.346 4.559 7.911 5.756 6.694z" fill="url(#SVGID_6_)"/><path d="m278.822 56.153-2.817-4.982-5.373-4.239-7.385-3.074-8.685-1.619h-9.127l-8.686 1.618-7.384 3.074-5.364 4.239-2.827 4.982v5.24l2.136 3.764-.001.002.691 1.217 5.363 4.229 2.816 1.176 4.569 1.908 8.686 1.62 9.128-.001 8.686-1.62 4.569-1.908 2.816-1.175 5.373-4.23.691-1.217 2.125-3.764z" fill="url(#SVGID_7_)"/><path d="m254.561 201.714 8.686-1.62 4.569-1.908 2.815-1.166 5.374-4.238.685-1.207.091.159 2.111-3.804-.035-5.279-2.845-5.033-5.392-4.267-7.401-3.114-8.691-1.624-9.115.001-8.669 1.638-7.37 3.102-5.336 4.277-2.784 5.032.021 5.284 2.043 3.602-.009.015.692 1.218 5.363 4.239 2.816 1.165 4.568 1.908 8.686 1.62z" fill="url(#SVGID_8_)"/><path d="m165.807 114.378-5.364-4.24-6.829-2.847-.556-.226-8.685-1.62h-9.129l-8.685 1.62-7.385 3.073-5.374 4.24-2.816 4.982v5.239l2.125 3.766.691 1.216.402.32 4.972 3.909 7.385 3.085.908.164 7.777 1.455h9.129l8.685-1.619 7.385-3.085 5.364-4.229.691-1.216 2.134-3.766v-5.239l-2.526-4.457z" fill="url(#SVGID_9_)"/><path d="m389.016 124.599v-5.24l-2.817-4.982-5.373-4.239-7.385-3.074-8.686-1.619h-9.126l-8.686 1.618-7.385 3.074-5.363 4.239-2.827 4.982v5.24l2.135 3.764.692-1.217 5.363-4.239.922-.383-.922.385-5.363 4.239-.692 1.218.692 1.216 5.363 4.229 7.385 3.085 8.686 1.619h9.128l8.685-1.619 7.385-3.085 5.374-4.229.681-1.216-.647-1.156.656 1.154z" fill="url(#SVGID_10_)"/><path d="m68.013 221.887 4.569 7.902 5.745 6.694 6.385 4.827.537.217 5.838 2.279 5.755-.103 4.559-2.671 2.105-3.569.825-1.412 1.011-6.809-1.011-7.962-1.248-3.56-1.682-4.786-4.559-7.911-2.826-3.28-2.929-3.414-5.838-4.415-.537-.412-6.385-2.486-1.403.02-4.342.072-4.569 2.672-2.93 4.982-1.01 6.808 1.01 7.963z" fill="url(#SVGID_11_)"/><path d="m72.574 318.762-4.559 2.671-2.938 4.982-1.001 6.808 1.001 7.972 2.94 8.344 4.56 7.901 5.755 6.694 6.375 4.837 6.374 2.485 5.755-.104 4.57-2.661 2.102-3.578h.001l.825-1.403 1.011-6.808-.309-2.435-.702-5.538-2.929-8.346-4.569-7.901-5.756-6.694-3.455-2.62-2.92-2.217-6.374-2.487-1.403.031-.712 1.211.711-1.217z" fill="url(#SVGID_12_)"/><path d="m174.265 268.779.577 4.569.433 3.394 2.929 8.344 4.57 7.911 5.756 6.695 5.167 3.919 1.208.908 6.373 2.486 5.757-.092 4.558-2.672 2.103-3.577h.006l.825-1.412 1.011-6.808-.164-1.269-.846-6.693-2.929-8.345-4.568-7.912-5.755-6.694-2.517-1.908-3.858-2.919-6.373-2.486-1.403.021-.004.006-4.347.072-4.57 2.671-2.929 4.982z" fill="url(#SVGID_13_)"/><path d="m379.816 294.194-2.929-4.982-4.57-2.672-4.342-.072-1.403-.02-6.374 2.485-1.476 1.104-1.918 1.454-1.516 1.156-1.475 1.114-5.746 6.693-4.569 7.912-2.93 8.346-.773 6.105-.237 1.857.227 1.568.546 3.672.237 1.568.826 1.402 2.104 3.58 4.569 2.671 5.746.093 6.385-2.486 1.464-1.114 3.446-2.599 1.464-1.114 5.745-6.694 4.57-7.911 2.929-8.346 1.011-7.962-.227-1.568-.547-3.672z" fill="url(#SVGID_14_)"/></g></svg>