<svg id="Warstwa_1" enable-background="new 0 0 283.46 283.46" height="283.46" viewBox="0 0 283.46 283.46" width="283.46" xmlns="http://www.w3.org/2000/svg" xmlns:xlink="http://www.w3.org/1999/xlink"><linearGradient id="lg1"><stop offset="0" stop-color="#e4e4e4"/><stop offset="1" stop-color="#c3c4c4"/></linearGradient><linearGradient id="SVGID_1_" gradientUnits="userSpaceOnUse" x1="37.549" x2="106.993" xlink:href="#lg1" y1="84.917" y2="84.917"/><linearGradient id="SVGID_2_" gradientUnits="userSpaceOnUse" x1="106.993" x2="176.438" xlink:href="#lg1" y1="122.796" y2="122.796"/><linearGradient id="SVGID_3_" gradientUnits="userSpaceOnUse" x1="106.993" x2="176.438" xlink:href="#lg1" y1="47.032" y2="47.032"/><linearGradient id="SVGID_4_" gradientUnits="userSpaceOnUse" x1="176.438" x2="245.882" xlink:href="#lg1" y1="84.912" y2="84.912"/><g><path d="m2.835 84.91 138.889 75.761 138.906-75.757-138.906-75.761z" fill="#fbfbfb"/><path d="m141.706 274.312.018-113.641 138.906-75.761-.017 113.641z" fill="#c3c4c4"/><path d="m141.724 160.671-138.889-75.761v113.641l138.889 75.761z" fill="#e4e4e4"/><path d="m37.549 65.979v18.936c0 10.462 15.556 18.94 34.73 18.94s34.714-8.479 34.714-18.94v-18.936z" fill="url(#SVGID_1_)"/><g><path d="m72.279 84.893c-19.137 0-34.706-8.485-34.706-18.915s15.569-18.916 34.706-18.916c19.127 0 34.689 8.485 34.689 18.916 0 10.43-15.561 18.915-34.689 18.915z" fill="#fbfbfb"/><path d="m72.279 47.088c19.114 0 34.664 8.475 34.664 18.891s-15.55 18.89-34.664 18.89c-19.123 0-34.681-8.474-34.681-18.89.001-10.416 15.558-18.891 34.681-18.891m0-.05c-19.175 0-34.73 8.479-34.73 18.94s15.556 18.939 34.73 18.939 34.714-8.478 34.714-18.939-15.539-18.94-34.714-18.94z" fill="#e4e4e4"/></g><path d="m106.993 103.858v18.937c0 10.462 15.556 18.939 34.73 18.939 19.176 0 34.714-8.478 34.714-18.939v-18.937z" fill="url(#SVGID_2_)"/><g><path d="m141.724 122.774c-19.137 0-34.706-8.485-34.706-18.916s15.569-18.916 34.706-18.916c19.128 0 34.688 8.485 34.688 18.916s-15.56 18.916-34.688 18.916z" fill="#fbfbfb"/><path d="m141.724 84.968c19.113 0 34.664 8.475 34.664 18.891s-15.551 18.891-34.664 18.891c-19.123 0-34.681-8.475-34.681-18.891s15.558-18.891 34.681-18.891m0-.05c-19.175 0-34.73 8.479-34.73 18.94s15.556 18.94 34.73 18.94c19.176 0 34.714-8.479 34.714-18.94s-15.539-18.94-34.714-18.94z" fill="#e4e4e4"/></g><path d="m106.993 28.094v18.936c0 10.462 15.556 18.94 34.73 18.94 19.176 0 34.714-8.479 34.714-18.94v-18.936z" fill="url(#SVGID_3_)"/><g><path d="m141.724 47.009c-19.137 0-34.706-8.485-34.706-18.915s15.569-18.916 34.706-18.916c19.128 0 34.688 8.485 34.688 18.916 0 10.429-15.56 18.915-34.688 18.915z" fill="#fbfbfb"/><path d="m141.724 9.203c19.113 0 34.664 8.475 34.664 18.891s-15.551 18.89-34.664 18.89c-19.123 0-34.681-8.474-34.681-18.89s15.558-18.891 34.681-18.891m0-.05c-19.175 0-34.73 8.479-34.73 18.94s15.556 18.94 34.73 18.94c19.176 0 34.714-8.478 34.714-18.94s-15.539-18.94-34.714-18.94z" fill="#e4e4e4"/></g><path d="m176.438 65.974v18.936c0 10.462 15.556 18.939 34.731 18.939s34.713-8.478 34.713-18.939v-18.936z" fill="url(#SVGID_4_)"/><g><path d="m211.169 84.889c-19.137 0-34.706-8.485-34.706-18.916 0-10.43 15.569-18.915 34.706-18.915 19.127 0 34.688 8.485 34.688 18.915-.001 10.431-15.561 18.916-34.688 18.916z" fill="#fbfbfb"/><path d="m211.169 47.083c19.113 0 34.663 8.474 34.663 18.89s-15.55 18.891-34.663 18.891c-19.123 0-34.682-8.475-34.682-18.891s15.559-18.89 34.682-18.89m0-.049c-19.176 0-34.731 8.478-34.731 18.94s15.556 18.94 34.731 18.94 34.713-8.479 34.713-18.94-15.538-18.94-34.713-18.94z" fill="#e4e4e4"/></g></g></svg>